<svg id="visual" viewBox="0 0 900 600" width="900" height="600" xmlns="http://www.w3.org/2000/svg" xmlns:xlink="http://www.w3.org/1999/xlink" version="1.1"><rect x="0" y="0" width="900" height="600" fill="#000000"></rect><path d="M0 175L21.5 179.3C43 183.7 86 192.3 128.8 190.7C171.7 189 214.3 177 257.2 168.7C300 160.3 343 155.7 385.8 162.5C428.7 169.3 471.3 187.7 514.2 193.5C557 199.3 600 192.7 642.8 188.5C685.7 184.3 728.3 182.7 771.2 192.3C814 202 857 223 878.5 233.5L900 244L900 0L878.5 0C857 0 814 0 771.2 0C728.3 0 685.7 0 642.8 0C600 0 557 0 514.2 0C471.3 0 428.7 0 385.8 0C343 0 300 0 257.2 0C214.3 0 171.7 0 128.8 0C86 0 43 0 21.5 0L0 0Z" fill="#fa7268"></path><path d="M0 164L21.5 159C43 154 86 144 128.8 137.3C171.7 130.7 214.3 127.3 257.2 134C300 140.7 343 157.3 385.8 168.8C428.7 180.3 471.3 186.7 514.2 185.2C557 183.7 600 174.3 642.8 170.2C685.7 166 728.3 167 771.2 160.3C814 153.7 857 139.3 878.5 132.2L900 125L900 0L878.5 0C857 0 814 0 771.2 0C728.3 0 685.7 0 642.8 0C600 0 557 0 514.2 0C471.3 0 428.7 0 385.8 0C343 0 300 0 257.2 0C214.3 0 171.7 0 128.8 0C86 0 43 0 21.5 0L0 0Z" fill="#ef5f67"></path><path d="M0 104L21.5 107.7C43 111.3 86 118.7 128.8 124C171.7 129.3 214.3 132.7 257.2 132.2C300 131.7 343 127.3 385.8 128C428.7 128.7 471.3 134.3 514.2 128.3C557 122.3 600 104.7 642.8 97.3C685.7 90 728.3 93 771.2 96.7C814 100.3 857 104.7 878.5 106.8L900 109L900 0L878.5 0C857 0 814 0 771.2 0C728.3 0 685.7 0 642.8 0C600 0 557 0 514.2 0C471.3 0 428.7 0 385.8 0C343 0 300 0 257.2 0C214.3 0 171.7 0 128.8 0C86 0 43 0 21.5 0L0 0Z" fill="#e34c67"></path><path d="M0 100L21.5 97.7C43 95.3 86 90.7 128.8 90.2C171.7 89.7 214.3 93.3 257.2 95.2C300 97 343 97 385.8 98.2C428.7 99.3 471.3 101.7 514.2 102.7C557 103.7 600 103.3 642.8 104.7C685.7 106 728.3 109 771.2 111.3C814 113.7 857 115.3 878.5 116.2L900 117L900 0L878.5 0C857 0 814 0 771.2 0C728.3 0 685.7 0 642.8 0C600 0 557 0 514.2 0C471.3 0 428.7 0 385.8 0C343 0 300 0 257.2 0C214.3 0 171.7 0 128.8 0C86 0 43 0 21.5 0L0 0Z" fill="#d53867"></path><path d="M0 60L21.5 56.2C43 52.3 86 44.7 128.8 44C171.7 43.3 214.3 49.7 257.2 51C300 52.3 343 48.7 385.8 49.3C428.7 50 471.3 55 514.2 58.5C557 62 600 64 642.8 58.3C685.7 52.7 728.3 39.3 771.2 36.7C814 34 857 42 878.5 46L900 50L900 0L878.5 0C857 0 814 0 771.2 0C728.3 0 685.7 0 642.8 0C600 0 557 0 514.2 0C471.3 0 428.7 0 385.8 0C343 0 300 0 257.2 0C214.3 0 171.7 0 128.8 0C86 0 43 0 21.5 0L0 0Z" fill="#c62368"></path></svg>