<!--?xml version="1.0" standalone="no"?-->
              <svg id="sw-js-blob-svg" viewBox="0 0 100 100" xmlns="http://www.w3.org/2000/svg" version="1.1">
                    <defs> 
                        <linearGradient id="sw-gradient" x1="0" x2="1" y1="1" y2="0">
                            <stop id="stop1" stop-color="rgba(244.897, 80.877, 3.25, 1)" offset="0%"></stop>
                            <stop id="stop2" stop-color="rgba(251, 168, 31, 1)" offset="100%"></stop>
                        </linearGradient>
                    </defs>
                <path fill="url(#sw-gradient)" d="M20.9,-24.9C24.6,-21.8,23.4,-12.9,22,-6.1C20.6,0.7,19,5.4,17.7,12.7C16.5,20.1,15.5,30.1,11.8,30.6C8.1,31.2,1.6,22.3,-3,16.9C-7.6,11.4,-10.3,9.4,-16.6,6C-22.9,2.5,-32.8,-2.5,-33.1,-6.8C-33.5,-11.1,-24.4,-14.6,-17.3,-17.1C-10.2,-19.6,-5.1,-21,1.8,-23.1C8.6,-25.2,17.2,-28,20.9,-24.9Z" width="100%" height="100%" transform="translate(50 50)" stroke-width="0" style="transition: all 0.3s ease 0s;"></path>
              </svg>